<mxfile host="Electron" modified="2024-06-14T17:24:44.140Z" agent="Mozilla/5.0 (Windows NT 10.0; Win64; x64) AppleWebKit/537.36 (KHTML, like Gecko) draw.io/24.4.13 Chrome/124.0.6367.207 Electron/30.0.6 Safari/537.36" etag="Cy5DXKWNvzm9GV4IgGiO" version="24.4.13" type="device">
  <diagram name="Page-1" id="rMv8kwB9UgUUAxWn1M3e">
    <mxGraphModel dx="1235" dy="740" grid="1" gridSize="10" guides="1" tooltips="1" connect="1" arrows="1" fold="1" page="1" pageScale="1" pageWidth="850" pageHeight="1100" math="0" shadow="0">
      <root>
        <mxCell id="0" />
        <mxCell id="1" parent="0" />
        <mxCell id="A8yymqMMYr5LrxQPH1aJ-12" value="&amp;lt;&amp;lt;device&amp;gt;&amp;gt;&lt;div&gt;&lt;b&gt;Home Server&lt;/b&gt;&lt;/div&gt;" style="verticalAlign=top;align=center;shape=cube;size=10;direction=south;fontStyle=0;html=1;boundedLbl=1;spacingLeft=5;whiteSpace=wrap;" vertex="1" parent="1">
          <mxGeometry x="220" y="140" width="680" height="580" as="geometry" />
        </mxCell>
        <mxCell id="A8yymqMMYr5LrxQPH1aJ-16" value="&amp;lt;&amp;lt;executionEnviroment&amp;gt;&amp;gt;&lt;div&gt;&lt;b&gt;Docker Host&lt;/b&gt;&lt;/div&gt;" style="verticalAlign=top;align=center;shape=cube;size=10;direction=south;html=1;boundedLbl=1;spacingLeft=5;whiteSpace=wrap;" vertex="1" parent="A8yymqMMYr5LrxQPH1aJ-12">
          <mxGeometry x="12.368115942028988" y="59.997377049180315" width="638.0666666666667" height="506.05475409836066" as="geometry" />
        </mxCell>
        <mxCell id="A8yymqMMYr5LrxQPH1aJ-83" style="edgeStyle=orthogonalEdgeStyle;rounded=0;orthogonalLoop=1;jettySize=auto;html=1;exitX=0.5;exitY=1;exitDx=0;exitDy=0;" edge="1" parent="A8yymqMMYr5LrxQPH1aJ-12" source="A8yymqMMYr5LrxQPH1aJ-46" target="A8yymqMMYr5LrxQPH1aJ-78">
          <mxGeometry relative="1" as="geometry" />
        </mxCell>
        <mxCell id="A8yymqMMYr5LrxQPH1aJ-84" style="edgeStyle=orthogonalEdgeStyle;rounded=0;orthogonalLoop=1;jettySize=auto;html=1;exitX=0.75;exitY=1;exitDx=0;exitDy=0;entryX=0.5;entryY=1;entryDx=0;entryDy=0;entryPerimeter=0;" edge="1" parent="A8yymqMMYr5LrxQPH1aJ-12" source="A8yymqMMYr5LrxQPH1aJ-46" target="A8yymqMMYr5LrxQPH1aJ-79">
          <mxGeometry relative="1" as="geometry" />
        </mxCell>
        <mxCell id="A8yymqMMYr5LrxQPH1aJ-46" value="" style="html=1;align=center;verticalAlign=top;rounded=1;absoluteArcSize=1;arcSize=20;dashed=1;whiteSpace=wrap;" vertex="1" parent="A8yymqMMYr5LrxQPH1aJ-12">
          <mxGeometry x="425" y="124.28571428571426" width="190" height="258.9285714285714" as="geometry" />
        </mxCell>
        <mxCell id="A8yymqMMYr5LrxQPH1aJ-47" value="&lt;b&gt;&amp;nbsp;Telegram &lt;i&gt;userbot&lt;/i&gt;&lt;/b&gt;" style="html=1;dropTarget=0;whiteSpace=wrap;align=left;" vertex="1" parent="A8yymqMMYr5LrxQPH1aJ-12">
          <mxGeometry x="450" y="145" width="140" height="31.071428571428566" as="geometry" />
        </mxCell>
        <mxCell id="A8yymqMMYr5LrxQPH1aJ-48" value="" style="shape=module;jettyWidth=8;jettyHeight=4;" vertex="1" parent="A8yymqMMYr5LrxQPH1aJ-47">
          <mxGeometry x="1" width="20" height="20" relative="1" as="geometry">
            <mxPoint x="-27" y="7" as="offset" />
          </mxGeometry>
        </mxCell>
        <mxCell id="A8yymqMMYr5LrxQPH1aJ-51" value="&lt;b&gt;&amp;nbsp;Telegram &lt;i&gt;userbot&lt;/i&gt;&lt;/b&gt;" style="html=1;dropTarget=0;whiteSpace=wrap;align=left;" vertex="1" parent="A8yymqMMYr5LrxQPH1aJ-12">
          <mxGeometry x="450" y="196.78571428571425" width="140" height="31.071428571428566" as="geometry" />
        </mxCell>
        <mxCell id="A8yymqMMYr5LrxQPH1aJ-52" value="" style="shape=module;jettyWidth=8;jettyHeight=4;" vertex="1" parent="A8yymqMMYr5LrxQPH1aJ-51">
          <mxGeometry x="1" width="20" height="20" relative="1" as="geometry">
            <mxPoint x="-27" y="7" as="offset" />
          </mxGeometry>
        </mxCell>
        <mxCell id="A8yymqMMYr5LrxQPH1aJ-49" value="&lt;b&gt;&amp;nbsp;Telegram &lt;i&gt;userbot&lt;/i&gt;&lt;/b&gt;" style="html=1;dropTarget=0;whiteSpace=wrap;align=left;" vertex="1" parent="A8yymqMMYr5LrxQPH1aJ-12">
          <mxGeometry x="450" y="243.3928571428571" width="140" height="31.071428571428566" as="geometry" />
        </mxCell>
        <mxCell id="A8yymqMMYr5LrxQPH1aJ-50" value="" style="shape=module;jettyWidth=8;jettyHeight=4;" vertex="1" parent="A8yymqMMYr5LrxQPH1aJ-49">
          <mxGeometry x="1" width="20" height="20" relative="1" as="geometry">
            <mxPoint x="-27" y="7" as="offset" />
          </mxGeometry>
        </mxCell>
        <mxCell id="A8yymqMMYr5LrxQPH1aJ-53" value="&lt;b&gt;&amp;nbsp;Telegram &lt;i&gt;userbot&lt;/i&gt;&lt;/b&gt;" style="html=1;dropTarget=0;whiteSpace=wrap;align=left;" vertex="1" parent="A8yymqMMYr5LrxQPH1aJ-12">
          <mxGeometry x="450" y="321.0714285714285" width="140" height="31.071428571428566" as="geometry" />
        </mxCell>
        <mxCell id="A8yymqMMYr5LrxQPH1aJ-54" value="" style="shape=module;jettyWidth=8;jettyHeight=4;" vertex="1" parent="A8yymqMMYr5LrxQPH1aJ-53">
          <mxGeometry x="1" width="20" height="20" relative="1" as="geometry">
            <mxPoint x="-27" y="7" as="offset" />
          </mxGeometry>
        </mxCell>
        <mxCell id="A8yymqMMYr5LrxQPH1aJ-71" value="" style="edgeStyle=orthogonalEdgeStyle;rounded=0;orthogonalLoop=1;jettySize=auto;html=1;" edge="1" parent="A8yymqMMYr5LrxQPH1aJ-12" source="A8yymqMMYr5LrxQPH1aJ-59" target="A8yymqMMYr5LrxQPH1aJ-64">
          <mxGeometry relative="1" as="geometry" />
        </mxCell>
        <mxCell id="A8yymqMMYr5LrxQPH1aJ-72" style="edgeStyle=orthogonalEdgeStyle;rounded=0;orthogonalLoop=1;jettySize=auto;html=1;exitX=0;exitY=1;exitDx=10;exitDy=0;exitPerimeter=0;entryX=1;entryY=0.5;entryDx=0;entryDy=0;" edge="1" parent="A8yymqMMYr5LrxQPH1aJ-12" source="A8yymqMMYr5LrxQPH1aJ-59" target="A8yymqMMYr5LrxQPH1aJ-63">
          <mxGeometry relative="1" as="geometry" />
        </mxCell>
        <mxCell id="A8yymqMMYr5LrxQPH1aJ-76" style="edgeStyle=orthogonalEdgeStyle;rounded=0;orthogonalLoop=1;jettySize=auto;html=1;exitX=1;exitY=0.5;exitDx=0;exitDy=0;entryX=0;entryY=0.5;entryDx=0;entryDy=0;" edge="1" parent="A8yymqMMYr5LrxQPH1aJ-12" source="A8yymqMMYr5LrxQPH1aJ-59" target="A8yymqMMYr5LrxQPH1aJ-46">
          <mxGeometry relative="1" as="geometry" />
        </mxCell>
        <mxCell id="A8yymqMMYr5LrxQPH1aJ-59" value="&lt;div&gt;&lt;b style=&quot;background-color: initial;&quot;&gt;Core&lt;/b&gt;&lt;br&gt;&lt;/div&gt;" style="shape=module;align=left;spacingLeft=20;align=center;verticalAlign=top;whiteSpace=wrap;html=1;" vertex="1" parent="A8yymqMMYr5LrxQPH1aJ-12">
          <mxGeometry x="230" y="362.49999999999994" width="110" height="51.78571428571428" as="geometry" />
        </mxCell>
        <mxCell id="A8yymqMMYr5LrxQPH1aJ-60" value="&lt;b&gt;Client&lt;/b&gt;&lt;span style=&quot;color: rgba(0, 0, 0, 0); font-family: monospace; font-size: 0px; text-align: start; text-wrap: nowrap;&quot;&gt;%3CmxGraphModel%3E%3Croot%3E%3CmxCell%20id%3D%220%22%2F%3E%3CmxCell%20id%3D%221%22%20parent%3D%220%22%2F%3E%3CmxCell%20id%3D%222%22%20value%3D%22%26lt%3Bdiv%26gt%3B%26lt%3Bb%20style%3D%26quot%3Bbackground-color%3A%20initial%3B%26quot%3B%26gt%3BCloudflared%26lt%3B%2Fb%26gt%3B%26lt%3Bbr%26gt%3B%26lt%3B%2Fdiv%26gt%3B%22%20style%3D%22shape%3Dmodule%3Balign%3Dleft%3BspacingLeft%3D20%3Balign%3Dcenter%3BverticalAlign%3Dtop%3BwhiteSpace%3Dwrap%3Bhtml%3D1%3B%22%20vertex%3D%221%22%20parent%3D%221%22%3E%3CmxGeometry%20x%3D%22440%22%20y%3D%22560%22%20width%3D%22110%22%20height%3D%2250%22%20as%3D%22geometry%22%2F%3E%3C%2FmxCell%3E%3C%2Froot%3E%3C%2FmxGraphModel%3E&lt;/span&gt;" style="shape=module;align=left;spacingLeft=20;align=center;verticalAlign=top;whiteSpace=wrap;html=1;" vertex="1" parent="A8yymqMMYr5LrxQPH1aJ-12">
          <mxGeometry x="230" y="134.6428571428571" width="110" height="51.78571428571428" as="geometry" />
        </mxCell>
        <mxCell id="A8yymqMMYr5LrxQPH1aJ-69" value="" style="edgeStyle=orthogonalEdgeStyle;rounded=0;orthogonalLoop=1;jettySize=auto;html=1;" edge="1" parent="A8yymqMMYr5LrxQPH1aJ-12" source="A8yymqMMYr5LrxQPH1aJ-61" target="A8yymqMMYr5LrxQPH1aJ-60">
          <mxGeometry relative="1" as="geometry" />
        </mxCell>
        <mxCell id="A8yymqMMYr5LrxQPH1aJ-70" value="" style="edgeStyle=orthogonalEdgeStyle;rounded=0;orthogonalLoop=1;jettySize=auto;html=1;" edge="1" parent="A8yymqMMYr5LrxQPH1aJ-12" source="A8yymqMMYr5LrxQPH1aJ-61" target="A8yymqMMYr5LrxQPH1aJ-59">
          <mxGeometry relative="1" as="geometry" />
        </mxCell>
        <mxCell id="A8yymqMMYr5LrxQPH1aJ-61" value="&lt;div&gt;&lt;b style=&quot;background-color: initial;&quot;&gt;Nginx&lt;/b&gt;&lt;br&gt;&lt;/div&gt;" style="shape=module;align=left;spacingLeft=20;align=center;verticalAlign=top;whiteSpace=wrap;html=1;" vertex="1" parent="A8yymqMMYr5LrxQPH1aJ-12">
          <mxGeometry x="230" y="243.3928571428571" width="110" height="51.78571428571428" as="geometry" />
        </mxCell>
        <mxCell id="A8yymqMMYr5LrxQPH1aJ-62" value="&lt;div&gt;&lt;b style=&quot;background-color: initial;&quot;&gt;Cloudflared&lt;/b&gt;&lt;br&gt;&lt;/div&gt;" style="shape=module;align=left;spacingLeft=20;align=center;verticalAlign=top;whiteSpace=wrap;html=1;" vertex="1" parent="A8yymqMMYr5LrxQPH1aJ-12">
          <mxGeometry x="40" y="186.42857142857142" width="110" height="51.78571428571428" as="geometry" />
        </mxCell>
        <mxCell id="A8yymqMMYr5LrxQPH1aJ-64" value="&lt;div&gt;&lt;b style=&quot;background-color: initial;&quot;&gt;Nominatim&lt;/b&gt;&lt;br&gt;&lt;/div&gt;" style="shape=module;align=left;spacingLeft=20;align=center;verticalAlign=top;whiteSpace=wrap;html=1;" vertex="1" parent="A8yymqMMYr5LrxQPH1aJ-12">
          <mxGeometry x="50" y="341.7857142857142" width="110" height="51.78571428571428" as="geometry" />
        </mxCell>
        <mxCell id="A8yymqMMYr5LrxQPH1aJ-73" value="" style="edgeStyle=orthogonalEdgeStyle;rounded=0;orthogonalLoop=1;jettySize=auto;html=1;" edge="1" parent="A8yymqMMYr5LrxQPH1aJ-12" source="A8yymqMMYr5LrxQPH1aJ-63" target="A8yymqMMYr5LrxQPH1aJ-64">
          <mxGeometry relative="1" as="geometry" />
        </mxCell>
        <mxCell id="A8yymqMMYr5LrxQPH1aJ-63" value="&lt;div&gt;&lt;b style=&quot;background-color: initial;&quot;&gt;Boundaries&lt;/b&gt;&lt;br&gt;&lt;/div&gt;" style="shape=module;align=left;spacingLeft=20;align=center;verticalAlign=top;whiteSpace=wrap;html=1;" vertex="1" parent="A8yymqMMYr5LrxQPH1aJ-12">
          <mxGeometry x="50" y="455.7142857142856" width="110" height="51.78571428571428" as="geometry" />
        </mxCell>
        <mxCell id="A8yymqMMYr5LrxQPH1aJ-68" style="edgeStyle=orthogonalEdgeStyle;rounded=0;orthogonalLoop=1;jettySize=auto;html=1;exitX=1;exitY=0.5;exitDx=0;exitDy=0;entryX=0;entryY=0;entryDx=0;entryDy=35;entryPerimeter=0;" edge="1" parent="A8yymqMMYr5LrxQPH1aJ-12" source="A8yymqMMYr5LrxQPH1aJ-62" target="A8yymqMMYr5LrxQPH1aJ-61">
          <mxGeometry relative="1" as="geometry" />
        </mxCell>
        <mxCell id="A8yymqMMYr5LrxQPH1aJ-78" value="&lt;div style=&quot;&quot;&gt;&lt;font style=&quot;font-size: 12px;&quot;&gt;&lt;br&gt;&lt;/font&gt;&lt;/div&gt;&lt;font style=&quot;font-size: 12px;&quot;&gt;PostgreSQL&lt;/font&gt;" style="strokeWidth=2;html=1;shape=mxgraph.flowchart.database;whiteSpace=wrap;" vertex="1" parent="A8yymqMMYr5LrxQPH1aJ-12">
          <mxGeometry x="470" y="463.4821428571428" width="80" height="67.32142857142856" as="geometry" />
        </mxCell>
        <mxCell id="A8yymqMMYr5LrxQPH1aJ-79" value="&lt;div style=&quot;&quot;&gt;&lt;font style=&quot;font-size: 12px;&quot;&gt;&lt;br&gt;&lt;/font&gt;&lt;/div&gt;&lt;font style=&quot;font-size: 12px;&quot;&gt;Minio&lt;/font&gt;" style="strokeWidth=2;html=1;shape=mxgraph.flowchart.database;whiteSpace=wrap;" vertex="1" parent="A8yymqMMYr5LrxQPH1aJ-12">
          <mxGeometry x="330" y="466.0714285714285" width="90" height="62.14285714285713" as="geometry" />
        </mxCell>
        <mxCell id="A8yymqMMYr5LrxQPH1aJ-80" style="edgeStyle=orthogonalEdgeStyle;rounded=0;orthogonalLoop=1;jettySize=auto;html=1;exitX=0.5;exitY=1;exitDx=0;exitDy=0;entryX=0.174;entryY=0.081;entryDx=0;entryDy=0;entryPerimeter=0;" edge="1" parent="A8yymqMMYr5LrxQPH1aJ-12" source="A8yymqMMYr5LrxQPH1aJ-59" target="A8yymqMMYr5LrxQPH1aJ-79">
          <mxGeometry relative="1" as="geometry" />
        </mxCell>
        <mxCell id="A8yymqMMYr5LrxQPH1aJ-85" style="edgeStyle=orthogonalEdgeStyle;rounded=0;orthogonalLoop=1;jettySize=auto;html=1;exitX=0.75;exitY=1;exitDx=0;exitDy=0;entryX=0.206;entryY=0.038;entryDx=0;entryDy=0;entryPerimeter=0;" edge="1" parent="A8yymqMMYr5LrxQPH1aJ-12" source="A8yymqMMYr5LrxQPH1aJ-59" target="A8yymqMMYr5LrxQPH1aJ-78">
          <mxGeometry relative="1" as="geometry">
            <Array as="points">
              <mxPoint x="312.4057971014493" y="427.86885245901635" />
              <mxPoint x="486.84057971014494" y="427.86885245901635" />
            </Array>
          </mxGeometry>
        </mxCell>
        <mxCell id="A8yymqMMYr5LrxQPH1aJ-55" value="" style="group" vertex="1" connectable="0" parent="1">
          <mxGeometry x="720" y="410" width="20" height="40" as="geometry" />
        </mxCell>
        <mxCell id="A8yymqMMYr5LrxQPH1aJ-56" value="" style="shape=waypoint;sketch=0;fillStyle=solid;size=6;pointerEvents=1;points=[];fillColor=none;resizable=0;rotatable=0;perimeter=centerPerimeter;snapToPoint=1;" vertex="1" parent="A8yymqMMYr5LrxQPH1aJ-55">
          <mxGeometry width="20" height="20" as="geometry" />
        </mxCell>
        <mxCell id="A8yymqMMYr5LrxQPH1aJ-57" value="" style="shape=waypoint;sketch=0;fillStyle=solid;size=6;pointerEvents=1;points=[];fillColor=none;resizable=0;rotatable=0;perimeter=centerPerimeter;snapToPoint=1;" vertex="1" parent="A8yymqMMYr5LrxQPH1aJ-55">
          <mxGeometry y="10" width="20" height="20" as="geometry" />
        </mxCell>
        <mxCell id="A8yymqMMYr5LrxQPH1aJ-58" value="" style="shape=waypoint;sketch=0;fillStyle=solid;size=6;pointerEvents=1;points=[];fillColor=none;resizable=0;rotatable=0;perimeter=centerPerimeter;snapToPoint=1;" vertex="1" parent="A8yymqMMYr5LrxQPH1aJ-55">
          <mxGeometry y="20" width="20" height="20" as="geometry" />
        </mxCell>
      </root>
    </mxGraphModel>
  </diagram>
</mxfile>
